<svg width="63" height="46" viewBox="0 0 63 46" fill="none" xmlns="http://www.w3.org/2000/svg">
<path opacity="0.3" d="M36.8414 41.7462C34.0074 38.9162 32.5912 35.0007 32.5928 29.9995C32.5928 19.11 40.2215 9.10952 55.4788 -0.00195313L57.039 2.32742C46.288 9.10584 40.9132 15.8841 40.9146 22.6621C40.9146 22.7433 40.9278 22.8101 40.9278 22.8885C43.4477 20.7564 46.7136 19.62 50.0693 19.7075C53.425 19.7949 56.6219 21.0999 59.0179 23.3601C61.414 25.6203 62.8316 28.6684 62.9859 31.8921C63.1403 35.1158 62.02 38.2762 59.8501 40.7385C59.6921 40.9383 59.4833 41.1205 59.3114 41.3118C59.2281 41.3967 59.1519 41.4816 59.0668 41.5629C58.7575 41.9196 58.427 42.259 58.0771 42.5791C55.4199 44.8586 51.9234 45.9982 47.5874 45.998C43.2515 45.9979 39.6695 44.5806 36.8414 41.7462ZM4.24742 41.7445C1.41581 38.9145 0 34.9984 0 29.9961C0 19.11 7.62807 9.11066 22.8842 -0.00195313L24.4465 2.32855C13.918 8.96916 8.58198 15.6066 8.36384 22.2419C10.4587 20.7159 12.9785 19.8237 15.6025 19.6788C18.2265 19.5339 20.836 20.1428 23.0988 21.4281C25.3616 22.7134 27.1755 24.6169 28.3094 26.8963C29.4434 29.1757 29.8461 31.7279 29.4664 34.2281C29.4664 34.2668 29.4732 34.2934 29.4732 34.3299C29.4732 37.5501 28.1439 40.2995 25.4854 42.578C22.8269 44.8565 19.3305 45.9952 14.9961 45.9941C10.6621 45.9941 7.07923 44.5776 4.24742 41.7445Z" fill="white"/>
</svg>
